<svg xmlns="http://www.w3.org/2000/svg" viewBox="0 0 240 120" fill="none" aria-hidden="true">
  <!-- Whale body: rounded organic shape -->
  <path d="M82 30
           C 130 22, 200 28, 220 60
           C 220 95, 165 105, 110 102
           C 75 98, 40 92, 22 76
           C 16 70, 18 62, 24 58
           C 30 54, 42 52, 52 50
           C 38 42, 30 26, 36 14
           C 50 18, 70 24, 82 30 Z"
        fill="currentColor"/>
  <!-- Lower tail fluke -->
  <path d="M28 78
           C 18 92, 12 110, 22 114
           C 38 110, 56 102, 64 90
           Z"
        fill="currentColor"/>
  <!-- Eye -->
  <circle cx="190" cy="52" r="4.5" fill="#101113"/>
</svg>
